<?xml version="1.0" standalone="no"?>
<!DOCTYPE svg PUBLIC "-//W3C//DTD SVG 20010904//EN"
 "http://www.w3.org/TR/2001/REC-SVG-20010904/DTD/svg10.dtd">
<svg version="1.0" xmlns="http://www.w3.org/2000/svg"
 width="512.000000pt" height="512.000000pt" viewBox="0 0 512.000000 512.000000"
 preserveAspectRatio="xMidYMid meet">
<metadata>
Created by potrace 1.16, written by Peter Selinger 2001-2019
</metadata>
<g transform="translate(0.000000,512.000000) scale(0.100000,-0.100000)"
fill="#000000" stroke="none">
<path d="M1810 5058 c-1 -187 -41 -300 -139 -399 -74 -74 -159 -115 -262 -129
-40 -5 -237 -10 -436 -10 l-363 0 0 -150 0 -150 318 -1 c187 -1 301 -4 277 -9
-142 -28 -264 -97 -380 -214 -77 -77 -98 -106 -137 -186 -67 -137 -81 -209
-76 -372 6 -149 26 -223 94 -347 57 -102 197 -236 304 -289 117 -58 218 -82
350 -82 132 0 232 23 350 82 69 34 103 60 180 138 78 77 104 111 138 180 59
118 82 218 82 350 0 132 -23 232 -82 350 -34 69 -60 103 -138 181 -81 81 -109
102 -190 142 -52 25 -123 52 -157 58 -35 7 -63 15 -63 19 0 3 33 13 73 22 39
10 110 37 157 60 69 34 103 60 180 138 78 77 104 111 138 180 62 124 82 216
82 372 l0 128 -150 0 -150 0 0 -62z m-376 -1167 c43 -29 66 -70 66 -121 0 -80
-60 -140 -140 -140 -80 0 -140 60 -140 140 0 80 60 140 140 140 27 0 56 -8 74
-19z m-384 -453 c28 -26 81 -62 118 -80 65 -32 71 -33 192 -33 121 0 127 1
192 33 83 40 157 108 202 185 l35 58 7 -46 c13 -91 0 -196 -34 -269 -42 -89
-128 -176 -219 -219 -64 -30 -74 -32 -183 -32 -109 0 -119 2 -183 32 -91 43
-177 130 -219 219 -34 73 -47 178 -34 269 l7 46 35 -58 c19 -32 57 -79 84
-105z"/>
<path d="M3012 4963 c4 -138 8 -167 31 -232 45 -125 93 -199 191 -296 104
-103 207 -163 333 -193 72 -17 95 -32 49 -32 -38 0 -158 -44 -233 -85 -44 -25
-100 -70 -158 -129 -77 -77 -98 -106 -137 -186 -67 -137 -81 -209 -76 -372 6
-149 26 -223 94 -347 57 -102 197 -236 304 -289 117 -58 218 -82 350 -82 132
0 232 23 350 82 69 34 103 60 180 138 78 77 104 111 138 180 59 118 82 218 82
350 0 132 -23 232 -82 350 -34 69 -60 103 -138 180 -77 78 -111 104 -181 139
-47 24 -119 51 -160 61 l-74 19 318 0 317 1 0 150 0 150 -362 0 c-200 0 -397
5 -437 10 -103 14 -188 55 -262 129 -98 99 -138 212 -139 399 l0 62 -151 0
-151 0 4 -157z m822 -1072 c43 -29 66 -70 66 -121 0 -51 -23 -92 -66 -121 -61
-40 -152 -18 -195 47 -40 61 -18 152 47 195 18 11 47 19 74 19 27 0 56 -8 74
-19z m-384 -453 c28 -26 81 -62 118 -80 65 -32 71 -33 192 -33 121 0 127 1
192 33 83 40 157 108 202 185 l35 58 7 -46 c13 -91 0 -196 -34 -269 -42 -89
-128 -176 -219 -219 -64 -30 -74 -32 -183 -32 -109 0 -119 2 -183 32 -91 43
-177 130 -219 219 -34 73 -47 178 -34 269 l7 46 35 -58 c19 -32 57 -79 84
-105z"/>
<path d="M2372 2701 c-40 -10 -112 -38 -160 -61 -72 -36 -104 -60 -183 -139
-83 -84 -102 -109 -142 -191 -62 -131 -77 -199 -77 -358 l0 -132 150 0 150 0
0 63 c1 110 18 208 50 274 40 86 128 174 217 216 64 30 74 32 183 32 109 0
119 -2 183 -32 89 -42 177 -130 217 -216 32 -66 49 -164 50 -274 l0 -63 150 0
150 0 0 133 c0 158 -19 242 -82 367 -34 69 -61 103 -138 180 -77 78 -111 104
-180 138 -120 60 -218 82 -354 81 -71 0 -138 -7 -184 -18z"/>
<path d="M611 1481 c-120 -45 -207 -124 -264 -240 l-32 -66 0 -425 0 -425 32
-66 c58 -118 146 -197 269 -240 49 -17 77 -20 164 -17 95 3 112 7 175 38 92
44 171 123 216 215 l34 70 0 425 0 425 -34 70 c-45 92 -124 171 -216 215 -65
32 -79 35 -180 37 -90 3 -120 0 -164 -16z m221 -308 c16 -10 39 -34 51 -53 21
-34 22 -43 22 -370 0 -317 -1 -337 -20 -368 -58 -96 -192 -96 -250 0 -19 31
-20 51 -20 368 0 324 1 336 21 368 44 69 130 93 196 55z"/>
<path d="M1811 1481 c-120 -45 -207 -124 -264 -240 l-32 -66 0 -425 0 -425 32
-66 c58 -118 146 -197 269 -240 49 -17 77 -20 164 -17 95 3 112 7 175 38 92
44 171 123 216 215 l34 70 0 425 0 425 -34 70 c-45 92 -124 171 -216 215 -65
32 -79 35 -180 37 -90 3 -120 0 -164 -16z m221 -308 c16 -10 39 -34 51 -53 21
-34 22 -43 22 -370 0 -317 -1 -337 -20 -368 -58 -96 -192 -96 -250 0 -19 31
-20 51 -20 368 0 324 1 336 21 368 44 69 130 93 196 55z"/>
<path d="M2710 751 l0 -751 150 0 150 0 0 299 0 299 138 4 c132 3 140 5 207
37 92 45 171 124 216 216 33 68 34 73 34 195 0 122 -1 127 -34 195 -45 92
-124 171 -216 216 l-70 34 -287 3 -288 3 0 -750z m521 421 c45 -27 69 -71 69
-122 0 -51 -24 -95 -69 -122 -25 -16 -55 -22 -127 -26 l-94 -5 0 153 0 153 94
-5 c72 -4 102 -10 127 -26z"/>
<path d="M4211 1481 c-120 -45 -207 -124 -264 -240 -31 -64 -32 -71 -32 -191
0 -120 1 -127 32 -191 76 -156 197 -239 377 -260 43 -5 92 -17 108 -27 123
-72 70 -262 -73 -262 -51 0 -93 25 -164 99 -21 22 -44 41 -50 41 -6 0 -58 -47
-115 -106 l-105 -105 86 -83 c60 -58 106 -93 155 -117 67 -33 72 -34 194 -34
122 0 127 1 195 34 92 45 171 124 216 216 33 68 34 73 34 195 0 122 -1 127
-34 195 -71 146 -203 237 -367 256 -48 5 -100 17 -116 27 -123 72 -70 262 73
262 51 0 93 -25 164 -99 21 -22 44 -41 50 -41 6 0 58 47 115 106 l105 105 -88
85 c-123 120 -184 148 -332 151 -90 3 -120 0 -164 -16z"/>
</g>
</svg>
